<mxfile host="app.diagrams.net" modified="2024-01-09T14:44:18.933Z" agent="Mozilla/5.0 (Windows NT 10.0; Win64; x64) AppleWebKit/537.36 (KHTML, like Gecko) Chrome/120.0.0.0 Safari/537.36" version="22.1.17" etag="i51qlJTWd-mN7XNuBXO5" type="github">
  <diagram name="페이지-1" id="JxJEUpT7MVDriFfpoa2h">
    <mxGraphModel>
      <root>
        <mxCell id="0" />
        <mxCell id="1" parent="0" />
      </root>
    </mxGraphModel>
  </diagram>
</mxfile>
